<svg width="44" height="44" viewBox="0 0 44 44" fill="none" xmlns="http://www.w3.org/2000/svg">
<rect x="0.5" y="0.5" width="43" height="43" rx="6.5" fill="#6363DB"/>
<rect x="0.5" y="0.5" width="43" height="43" rx="6.5" stroke="#4F4FB9"/>
<path d="M25.54 29.5L24.5 26.1H19.3L18.26 29.5H15L20.04 15.16H23.74L28.8 29.5H25.54ZM22.74 20.24C22.6733 20.0133 22.5867 19.7267 22.48 19.38C22.3733 19.0333 22.2667 18.68 22.16 18.32C22.0533 17.96 21.9667 17.6467 21.9 17.38C21.8333 17.6467 21.74 17.98 21.62 18.38C21.5133 18.7667 21.4067 19.14 21.3 19.5C21.2067 19.8467 21.1333 20.0933 21.08 20.24L20.06 23.56H23.78L22.74 20.24Z" fill="white"/>
</svg>
